<?xml version="1.0" encoding="utf-8"?>
<!-- Generator: Adobe Illustrator 24.3.0, SVG Export Plug-In . SVG Version: 6.00 Build 0)  -->
<svg version="1.1" id="Layer_1" xmlns="http://www.w3.org/2000/svg" xmlns:xlink="http://www.w3.org/1999/xlink" x="0px" y="0px"
	 viewBox="0 0 2000 2000" style="enable-background:new 0 0 2000 2000;" xml:space="preserve">
<style type="text/css">
	.st0{fill:#BE1B2A;}
	.st1{fill:#212323;}
</style>
<g>
	<g>
		<polygon class="st0" points="1151.3,694.8 1151.3,963.3 1017.6,1033.1 1017.6,993.4 1116.1,941.9 1116.1,730 1052.9,763.2 
			1052.9,694.8 		"/>
		<g>
			<polygon class="st1" points="1092,779.6 1017.6,818.4 1017.6,858.2 1092,819.3 			"/>
			<polyline class="st1" points="1017.6,849.7 1017.6,967.2 1061,810.4 			"/>
		</g>
		<polygon class="st0" points="982.4,993.4 982.4,1033.1 848.7,963.3 848.7,694.8 947.2,694.8 947.2,763.2 883.9,730 883.9,941.9 		
			"/>
		<g>
			<polygon class="st1" points="908,779.6 982.4,818.4 982.4,858.2 908,819.3 			"/>
			<polyline class="st1" points="982.4,849.7 982.4,967.2 939,810.4 			"/>
		</g>
	</g>
	<g>
		<g>
			<path class="st1" d="M478.1,1211.3c-9.2,0-18-1.2-26.5-3.7c-8.4-2.5-15.2-5.7-20.4-9.6l9-20c4.9,3.5,10.8,6.4,17.5,8.6
				c6.7,2.2,13.6,3.4,20.5,3.4c5.3,0,9.5-0.5,12.7-1.6c3.2-1,5.6-2.5,7.1-4.4c1.5-1.9,2.3-4,2.3-6.4c0-3.1-1.2-5.5-3.6-7.3
				c-2.4-1.8-5.6-3.3-9.5-4.4c-3.9-1.1-8.3-2.2-13.1-3.3c-4.8-1-9.5-2.3-14.3-3.9c-4.8-1.5-9.1-3.5-13.1-5.9
				c-3.9-2.4-7.1-5.6-9.6-9.5c-2.5-3.9-3.7-9-3.7-15.1c0-6.6,1.8-12.6,5.3-18c3.6-5.4,8.9-9.7,16.1-13c7.2-3.2,16.2-4.8,27-4.8
				c7.2,0,14.3,0.8,21.4,2.5c7,1.7,13.2,4.2,18.6,7.6l-8.2,20.2c-5.4-3.1-10.7-5.3-16.1-6.8c-5.4-1.5-10.6-2.2-15.8-2.2
				c-5.2,0-9.4,0.6-12.7,1.8c-3.3,1.2-5.6,2.8-7.1,4.7c-1.4,1.9-2.1,4.1-2.1,6.7c0,3,1.2,5.3,3.6,7.1c2.4,1.8,5.6,3.3,9.5,4.4
				c3.9,1.1,8.3,2.2,13.1,3.3c4.8,1.1,9.5,2.4,14.3,3.8c4.8,1.4,9.1,3.3,13.1,5.8c3.9,2.4,7.1,5.6,9.6,9.5c2.5,3.9,3.7,8.9,3.7,15
				c0,6.5-1.8,12.4-5.4,17.7c-3.6,5.4-9,9.7-16.2,13C498.1,1209.7,489,1211.3,478.1,1211.3z"/>
			<path class="st1" d="M588,1188h62.6v21.4h-89.1v-115h86.9v21.4H588V1188z M586,1140.6h55.4v20.7H586V1140.6z"/>
			<path class="st1" d="M688.2,1209.3v-115h22l67.9,82.8h-10.7v-82.8h26.3v115h-21.9l-68-82.8h10.7v82.8H688.2z"/>
			<path class="st1" d="M861.2,1209.3V1116h-36.8v-21.7h100.2v21.7h-36.8v93.3H861.2z"/>
			<path class="st1" d="M955.4,1209.3v-115H982v115H955.4z"/>
			<path class="st1" d="M1025.7,1209.3v-115h22l67.9,82.8h-10.7v-82.8h26.3v115h-21.9l-68-82.8h10.7v82.8H1025.7z"/>
			<path class="st1" d="M1201.4,1188h62.6v21.4h-89.1v-115h86.9v21.4h-60.5V1188z M1199.4,1140.6h55.4v20.7h-55.4V1140.6z"/>
			<path class="st1" d="M1301.6,1209.3v-115h26.6v93.3h57.7v21.7H1301.6z"/>
			<path class="st0" d="M1404,1209.3l52.6-115h12l52.6,115h-12.8l-48.3-108h4.9l-48.3,108H1404z M1424.7,1178.6l3.6-9.9h66.9
				l3.6,9.9H1424.7z"/>
			<path class="st0" d="M1556.6,1209.3v-115h12.2v115H1556.6z"/>
		</g>
		<g>
			<path class="st1" d="M696.4,1260.8v4.3h-8.5v27.7h-5.2v-27.7h-8.5v-4.3H696.4z"/>
			<path class="st1" d="M724.6,1268.2c1.5,0.8,2.7,2.1,3.6,3.7c0.9,1.6,1.3,3.6,1.3,5.9v14.9h-5.2v-14.2c0-2.3-0.6-4-1.7-5.2
				c-1.1-1.2-2.7-1.8-4.6-1.8c-2,0-3.5,0.6-4.7,1.8c-1.1,1.2-1.7,2.9-1.7,5.2v14.2h-5.2v-34h5.2v11.6c0.9-1.1,2-1.9,3.4-2.5
				c1.4-0.6,2.9-0.9,4.5-0.9C721.3,1267,723.1,1267.4,724.6,1268.2z"/>
			<path class="st1" d="M763.8,1282h-19.4c0.2,2,0.9,3.6,2.3,4.9c1.3,1.2,3,1.8,5,1.8c2.8,0,4.8-1.2,6-3.5h5.7
				c-0.8,2.3-2.2,4.2-4.2,5.7c-2,1.5-4.5,2.2-7.5,2.2c-2.4,0-4.6-0.5-6.5-1.6c-1.9-1.1-3.4-2.6-4.5-4.6c-1.1-2-1.6-4.3-1.6-6.9
				c0-2.6,0.5-4.9,1.6-6.9c1.1-2,2.5-3.5,4.5-4.6c1.9-1.1,4.1-1.6,6.6-1.6c2.4,0,4.5,0.5,6.4,1.6c1.9,1,3.3,2.5,4.4,4.4
				c1,1.9,1.6,4.1,1.6,6.5C764,1280.4,763.9,1281.2,763.8,1282z M758.5,1277.8c0-1.9-0.7-3.5-2.1-4.6c-1.3-1.2-3-1.7-5-1.7
				c-1.8,0-3.4,0.6-4.6,1.7c-1.3,1.1-2.1,2.7-2.3,4.7H758.5z"/>
			<path class="st1" d="M816.5,1292.7h-5.2l-15.8-23.9v23.9h-5.2v-32h5.2l15.8,23.8v-23.8h5.2V1292.7z"/>
			<path class="st1" d="M851,1282h-19.3c0.2,2,0.9,3.6,2.3,4.9c1.3,1.2,3,1.8,5,1.8c2.8,0,4.8-1.2,6-3.5h5.7
				c-0.8,2.3-2.2,4.2-4.2,5.7c-2,1.5-4.5,2.2-7.5,2.2c-2.4,0-4.6-0.5-6.5-1.6c-1.9-1.1-3.4-2.6-4.5-4.6c-1.1-2-1.6-4.3-1.6-6.9
				c0-2.6,0.5-4.9,1.6-6.9c1.1-2,2.5-3.5,4.5-4.6c1.9-1.1,4.1-1.6,6.6-1.6c2.4,0,4.5,0.5,6.4,1.6c1.9,1,3.3,2.5,4.4,4.4
				c1,1.9,1.6,4.1,1.6,6.5C851.2,1280.4,851.1,1281.2,851,1282z M845.7,1277.8c0-1.9-0.7-3.5-2.1-4.6c-1.3-1.2-3-1.7-5-1.7
				c-1.8,0-3.4,0.6-4.6,1.7c-1.3,1.1-2.1,2.7-2.3,4.7H845.7z"/>
			<path class="st1" d="M894.9,1267.4l-7.9,25.3h-5.5l-5.1-18.7l-5.1,18.7h-5.5l-7.9-25.3h5.3l5.3,20.4l5.4-20.4h5.5l5.1,20.3
				l5.2-20.3H894.9z"/>
			<path class="st1" d="M961.6,1260.8l-9.5,31.9h-5.9l-6.7-24.2l-7.1,24.2l-5.9,0l-9.1-32h5.6l6.6,26l7.2-26h5.9l6.7,25.9l6.7-25.9
				H961.6z"/>
			<path class="st1" d="M970.3,1273.2c1.1-2,2.5-3.5,4.3-4.6c1.8-1.1,3.8-1.6,6-1.6c2,0,3.7,0.4,5.2,1.2c1.5,0.8,2.7,1.8,3.6,2.9
				v-3.7h5.3v25.3h-5.3v-3.8c-0.9,1.2-2.1,2.2-3.6,3c-1.5,0.8-3.3,1.2-5.2,1.2c-2.2,0-4.2-0.6-6-1.7c-1.8-1.1-3.2-2.7-4.3-4.7
				c-1.1-2-1.6-4.3-1.6-6.8S969.3,1275.2,970.3,1273.2z M988.4,1275.5c-0.7-1.3-1.7-2.3-2.8-2.9c-1.2-0.7-2.4-1-3.8-1
				c-1.3,0-2.6,0.3-3.8,1c-1.2,0.7-2.1,1.6-2.8,2.9c-0.7,1.3-1.1,2.8-1.1,4.5c0,1.7,0.4,3.3,1.1,4.6s1.7,2.3,2.8,3s2.4,1,3.7,1
				c1.3,0,2.6-0.3,3.8-1c1.2-0.7,2.1-1.7,2.8-3c0.7-1.3,1.1-2.8,1.1-4.6C989.5,1278.3,989.1,1276.8,988.4,1275.5z"/>
			<path class="st1" d="M1029,1267.4l-15.5,37.2h-5.4l5.1-12.3l-10-24.9h5.8l7.1,19.3l7.4-19.3H1029z"/>
			<path class="st1" d="M1060.5,1291c-2.5-1.4-4.5-3.3-5.9-5.8c-1.5-2.5-2.2-5.3-2.2-8.4c0-3.1,0.7-5.9,2.2-8.4
				c1.5-2.5,3.4-4.4,5.9-5.8c2.5-1.4,5.2-2.1,8.2-2.1c3,0,5.8,0.7,8.3,2.1c2.5,1.4,4.5,3.3,5.9,5.8c1.4,2.5,2.2,5.3,2.2,8.4
				c0,3.1-0.7,5.9-2.2,8.4c-1.4,2.5-3.4,4.4-5.9,5.8c-2.5,1.4-5.2,2.1-8.3,2.1C1065.7,1293,1063,1292.3,1060.5,1291z M1074.4,1287
				c1.7-1,2.9-2.3,3.9-4.1c0.9-1.8,1.4-3.9,1.4-6.2c0-2.4-0.5-4.4-1.4-6.2c-0.9-1.8-2.2-3.1-3.9-4.1c-1.7-1-3.5-1.4-5.7-1.4
				c-2.1,0-4,0.5-5.7,1.4c-1.7,0.9-2.9,2.3-3.9,4.1c-0.9,1.8-1.4,3.8-1.4,6.2c0,2.4,0.5,4.4,1.4,6.2c0.9,1.8,2.2,3.2,3.9,4.1
				c1.7,1,3.5,1.4,5.7,1.4C1070.8,1288.5,1072.7,1288,1074.4,1287z"/>
			<path class="st1" d="M1105.4,1271.7h-4.7v21.1h-5.3v-21.1h-3v-4.3h3v-1.8c0-2.9,0.8-5,2.3-6.4c1.5-1.3,4-2,7.3-2v4.4
				c-1.6,0-2.7,0.3-3.4,0.9c-0.6,0.6-1,1.6-1,3.1v1.8h4.7V1271.7z"/>
			<path class="st1" d="M1135.9,1291.9c-1.7-0.8-3.1-1.8-4-3.2c-1-1.4-1.5-3-1.5-4.8h5.6c0.1,1.4,0.7,2.5,1.6,3.4
				c1,0.9,2.3,1.3,4.1,1.3c1.8,0,3.2-0.4,4.2-1.3c1-0.9,1.5-2,1.5-3.4c0-1.1-0.3-1.9-0.9-2.6c-0.6-0.7-1.4-1.2-2.3-1.6
				c-0.9-0.4-2.2-0.8-3.9-1.2c-2.1-0.6-3.8-1.1-5.1-1.7c-1.3-0.6-2.4-1.4-3.3-2.6c-0.9-1.2-1.4-2.8-1.4-4.8c0-1.8,0.5-3.4,1.4-4.8
				c0.9-1.4,2.2-2.4,3.9-3.2c1.7-0.7,3.6-1.1,5.7-1.1c3.1,0,5.6,0.8,7.6,2.3c2,1.5,3.1,3.7,3.3,6.4h-5.8c-0.1-1.2-0.6-2.2-1.7-3
				c-1-0.8-2.3-1.2-4-1.2c-1.5,0-2.7,0.4-3.7,1.1c-0.9,0.8-1.4,1.9-1.4,3.3c0,1,0.3,1.8,0.9,2.4c0.6,0.6,1.4,1.1,2.3,1.5
				c0.9,0.4,2.2,0.8,3.8,1.2c2.1,0.6,3.8,1.2,5.2,1.7c1.3,0.6,2.5,1.5,3.4,2.7c0.9,1.2,1.4,2.8,1.4,4.8c0,1.6-0.4,3.2-1.3,4.6
				c-0.9,1.4-2.1,2.6-3.8,3.5c-1.7,0.9-3.6,1.3-5.9,1.3C1139.5,1293,1137.6,1292.7,1135.9,1291.9z"/>
			<path class="st1" d="M1181.7,1268.2c1.6,0.8,2.8,2.1,3.7,3.7c0.9,1.6,1.3,3.6,1.3,5.9v14.9h-5.2v-14.2c0-2.3-0.6-4-1.7-5.2
				c-1.1-1.2-2.7-1.8-4.6-1.8c-2,0-3.5,0.6-4.7,1.8c-1.1,1.2-1.7,2.9-1.7,5.2v14.2h-5.2v-25.3h5.2v2.9c0.9-1,2-1.9,3.3-2.4
				c1.3-0.6,2.8-0.9,4.3-0.9C1178.3,1267,1180.1,1267.4,1181.7,1268.2z"/>
			<path class="st1" d="M1198.2,1263.1c-0.6-0.6-1-1.4-1-2.4c0-0.9,0.3-1.7,1-2.4c0.6-0.6,1.4-1,2.4-1c0.9,0,1.7,0.3,2.3,1
				c0.6,0.6,1,1.4,1,2.4c0,1-0.3,1.7-1,2.4c-0.6,0.6-1.4,1-2.3,1C1199.7,1264,1198.9,1263.7,1198.2,1263.1z M1203.2,1267.4v25.3
				h-5.2v-25.3H1203.2z"/>
			<path class="st1" d="M1223.5,1268.2c1.5-0.8,3.3-1.2,5.2-1.2c2.2,0,4.2,0.5,6,1.6c1.8,1.1,3.3,2.6,4.3,4.6c1,2,1.6,4.2,1.6,6.8
				s-0.5,4.8-1.6,6.8c-1,2-2.5,3.6-4.3,4.7c-1.8,1.1-3.8,1.7-6,1.7c-1.9,0-3.6-0.4-5.1-1.2c-1.5-0.8-2.7-1.8-3.7-2.9v15.7h-5.2
				v-37.4h5.2v3.7C1220.8,1270,1222,1269,1223.5,1268.2z M1234.2,1275.4c-0.7-1.3-1.7-2.2-2.8-2.9c-1.2-0.7-2.4-1-3.8-1
				c-1.3,0-2.6,0.3-3.7,1c-1.2,0.7-2.1,1.7-2.8,2.9c-0.7,1.3-1.1,2.8-1.1,4.5c0,1.7,0.4,3.3,1.1,4.6c0.7,1.3,1.7,2.3,2.8,3
				c1.2,0.7,2.4,1,3.7,1c1.3,0,2.6-0.3,3.8-1c1.2-0.7,2.1-1.7,2.8-3c0.7-1.3,1.1-2.9,1.1-4.6
				C1235.3,1278.2,1235,1276.7,1234.2,1275.4z"/>
			<path class="st1" d="M1250.7,1263.1c-0.6-0.6-1-1.4-1-2.4c0-0.9,0.3-1.7,1-2.4c0.6-0.6,1.4-1,2.4-1c0.9,0,1.7,0.3,2.3,1
				c0.6,0.6,1,1.4,1,2.4c0,1-0.3,1.7-1,2.4c-0.6,0.6-1.4,1-2.3,1C1252.2,1264,1251.4,1263.7,1250.7,1263.1z M1255.7,1267.4v25.3
				h-5.2v-25.3H1255.7z"/>
			<path class="st1" d="M1285.3,1268.2c1.6,0.8,2.8,2.1,3.7,3.7c0.9,1.6,1.3,3.6,1.3,5.9v14.9h-5.2v-14.2c0-2.3-0.6-4-1.7-5.2
				c-1.1-1.2-2.7-1.8-4.6-1.8c-2,0-3.5,0.6-4.7,1.8c-1.1,1.2-1.7,2.9-1.7,5.2v14.2h-5.2v-25.3h5.2v2.9c0.9-1,2-1.9,3.3-2.4
				c1.3-0.6,2.8-0.9,4.3-0.9C1281.9,1267,1283.7,1267.4,1285.3,1268.2z"/>
			<path class="st1" d="M1317,1268.2c1.5,0.8,2.7,1.8,3.6,2.9v-3.7h5.3v25.7c0,2.3-0.5,4.4-1.5,6.2c-1,1.8-2.4,3.3-4.3,4.3
				c-1.9,1-4.1,1.6-6.6,1.6c-3.4,0-6.3-0.8-8.5-2.4c-2.3-1.6-3.6-3.8-3.9-6.5h5.2c0.4,1.3,1.2,2.4,2.6,3.2c1.3,0.8,2.9,1.2,4.7,1.2
				c2.1,0,3.8-0.6,5.1-1.9c1.3-1.3,2-3.2,2-5.6v-4.2c-0.9,1.2-2.1,2.2-3.6,3c-1.5,0.8-3.2,1.2-5.2,1.2c-2.2,0-4.2-0.6-6-1.7
				c-1.8-1.1-3.3-2.7-4.3-4.7c-1.1-2-1.6-4.3-1.6-6.8s0.5-4.8,1.6-6.8c1.1-2,2.5-3.5,4.3-4.6c1.8-1.1,3.8-1.6,6-1.6
				C1313.8,1267,1315.5,1267.4,1317,1268.2z M1319.5,1275.5c-0.7-1.3-1.7-2.3-2.8-2.9c-1.2-0.7-2.4-1-3.8-1c-1.3,0-2.6,0.3-3.8,1
				c-1.2,0.7-2.1,1.6-2.8,2.9c-0.7,1.3-1.1,2.8-1.1,4.5c0,1.7,0.4,3.3,1.1,4.6c0.7,1.3,1.7,2.3,2.8,3c1.2,0.7,2.4,1,3.7,1
				c1.3,0,2.6-0.3,3.8-1c1.2-0.7,2.1-1.7,2.8-3c0.7-1.3,1.1-2.8,1.1-4.6C1320.6,1278.3,1320.2,1276.8,1319.5,1275.5z"/>
		</g>
	</g>
</g>
</svg>
