<?xml version="1.0" encoding="utf-8"?>
<!-- Generator: Adobe Illustrator 26.5.0, SVG Export Plug-In . SVG Version: 6.00 Build 0)  -->
<svg version="1.1" id="Layer_1" xmlns="http://www.w3.org/2000/svg" xmlns:xlink="http://www.w3.org/1999/xlink" x="0px" y="0px"
	 viewBox="0 0 2000 2000" style="enable-background:new 0 0 2000 2000;" xml:space="preserve">
<style type="text/css">
	.st0{fill:#212323;}
	.st1{fill:#FFFFFF;}
	.st2{fill:#BE1B2A;}
	.st3{fill:#BC1B2A;}
</style>
<g>
	<g>
		<path class="st0" d="M728.5,1039.17c-7.43,0-14.56-1-21.38-2.99c-6.82-1.99-12.3-4.58-16.46-7.77l7.3-16.2
			c3.98,2.83,8.7,5.16,14.14,6.97c5.44,1.81,10.95,2.72,16.53,2.72c4.25,0,7.68-0.42,10.29-1.26c2.61-0.84,4.53-2.01,5.78-3.52
			c1.24-1.5,1.86-3.23,1.86-5.18c0-2.48-0.97-4.45-2.92-5.91c-1.95-1.46-4.51-2.66-7.7-3.59c-3.19-0.93-6.7-1.81-10.55-2.66
			c-3.85-0.84-7.7-1.88-11.55-3.12c-3.85-1.24-7.37-2.83-10.55-4.78c-3.19-1.95-5.78-4.51-7.77-7.7c-1.99-3.19-2.99-7.26-2.99-12.21
			c0-5.31,1.44-10.16,4.32-14.54c2.87-4.38,7.21-7.88,13.01-10.49c5.8-2.61,13.08-3.92,21.84-3.92c5.84,0,11.59,0.69,17.26,2.06
			c5.66,1.37,10.66,3.43,15,6.17l-6.64,16.33c-4.34-2.48-8.68-4.32-13.01-5.51c-4.34-1.2-8.59-1.79-12.75-1.79
			c-4.16,0-7.57,0.49-10.22,1.46c-2.66,0.98-4.56,2.24-5.71,3.78c-1.15,1.55-1.73,3.34-1.73,5.38c0,2.39,0.97,4.32,2.92,5.78
			c1.95,1.46,4.51,2.63,7.7,3.52c3.19,0.89,6.7,1.77,10.56,2.66c3.85,0.89,7.7,1.9,11.55,3.05c3.85,1.15,7.37,2.7,10.55,4.65
			c3.19,1.95,5.78,4.51,7.77,7.7c1.99,3.19,2.99,7.21,2.99,12.08c0,5.22-1.46,10-4.38,14.34c-2.92,4.34-7.28,7.83-13.08,10.49
			C744.68,1037.85,737.35,1039.17,728.5,1039.17z"/>
		<path class="st0" d="M817.32,1020.32h50.58v17.26h-71.96v-92.93h70.23v17.26h-48.86V1020.32z M815.73,982.09h44.74v16.73h-44.74
			V982.09z"/>
		<path class="st0" d="M898.3,1037.58v-92.93h17.79l54.83,66.91h-8.63v-66.91h21.24v92.93h-17.66l-54.96-66.91h8.63v66.91H898.3z"/>
		<path class="st0" d="M1038.1,1037.58v-75.41h-29.74v-17.52h80.99v17.52h-29.74v75.41H1038.1z"/>
		<path class="st0" d="M1114.18,1037.58v-92.93h21.51v92.93H1114.18z"/>
		<path class="st0" d="M1171,1037.58v-92.93h17.79l54.83,66.91h-8.63v-66.91h21.24v92.93h-17.66l-54.96-66.91h8.63v66.91H1171z"/>
		<path class="st0" d="M1312.92,1020.32h50.58v17.26h-71.96v-92.93h70.23v17.26h-48.86V1020.32z M1311.33,982.09h44.74v16.73h-44.74
			V982.09z"/>
		<path class="st0" d="M1393.9,1037.58v-92.93h21.51v75.41h46.6v17.53H1393.9z"/>
		<path class="st3" d="M1476.61,1037.58l42.49-92.93h9.69l42.48,92.93h-10.36l-39.03-87.23h3.98l-39.03,87.23H1476.61z
			 M1493.34,1012.75l2.92-7.97h54.03l2.92,7.97H1493.34z"/>
		<path class="st3" d="M1599.95,1037.58v-92.93h9.83v92.93H1599.95z"/>
	</g>
	<g>
		<polygon class="st3" points="619.85,871.65 619.85,1075.4 518.43,1128.35 518.43,1098.2 593.11,1059.19 593.11,898.39 
			545.17,923.54 545.17,871.65 		"/>
		<g>
			<polygon class="st0" points="574.88,935.98 518.41,965.47 518.41,995.64 574.88,966.15 			"/>
			<polyline class="st0" points="518.41,989.23 518.41,1078.32 551.33,959.4 			"/>
		</g>
		<polygon class="st3" points="491.68,1098.2 491.68,1128.35 390.22,1075.4 390.22,871.65 464.94,871.65 464.94,923.54 
			416.97,898.39 416.97,1059.19 		"/>
		<g>
			<polygon class="st0" points="435.2,935.98 491.67,965.47 491.67,995.64 435.2,966.15 			"/>
			<polyline class="st0" points="491.67,989.23 491.67,1078.32 458.75,959.4 			"/>
		</g>
	</g>
</g>
</svg>
