<?xml version="1.0" encoding="utf-8"?>
<!-- Generator: Adobe Illustrator 26.5.0, SVG Export Plug-In . SVG Version: 6.00 Build 0)  -->
<svg version="1.1" id="Layer_1" xmlns="http://www.w3.org/2000/svg" xmlns:xlink="http://www.w3.org/1999/xlink" x="0px" y="0px"
	 viewBox="0 0 2000 2000" style="enable-background:new 0 0 2000 2000;" xml:space="preserve">
<style type="text/css">
	.st0{fill:#212323;}
	.st1{fill:#FFFFFF;}
	.st2{fill:#BE1B2A;}
	.st3{fill:#BC1B2A;}
</style>
<g>
	<g>
		<polygon class="st0" points="1151.32,694.78 1151.32,963.31 1017.65,1033.1 1017.65,993.36 1116.07,941.94 1116.07,730.02 
			1052.89,763.16 1052.89,694.78 		"/>
		<g>
			<polygon class="st0" points="1092.04,779.57 1017.62,818.42 1017.62,858.19 1092.04,819.33 			"/>
			<polyline class="st0" points="1017.62,849.74 1017.62,967.16 1061.01,810.43 			"/>
		</g>
		<polygon class="st0" points="982.4,993.36 982.4,1033.1 848.68,963.31 848.68,694.78 947.15,694.78 947.15,763.16 883.93,730.02 
			883.93,941.94 		"/>
		<g>
			<polygon class="st0" points="907.96,779.57 982.38,818.42 982.38,858.19 907.96,819.33 			"/>
			<polyline class="st0" points="982.38,849.74 982.38,967.16 938.99,810.43 			"/>
		</g>
	</g>
	<g>
		<g>
			<path class="st0" d="M478.07,1211.3c-9.2,0-18.02-1.23-26.45-3.7c-8.44-2.46-15.23-5.67-20.37-9.61l9.04-20.05
				c4.93,3.51,10.76,6.38,17.5,8.63c6.74,2.25,13.56,3.37,20.46,3.37c5.26,0,9.5-0.52,12.73-1.56c3.23-1.04,5.61-2.49,7.15-4.35
				c1.53-1.86,2.3-4,2.3-6.41c0-3.07-1.21-5.5-3.61-7.31c-2.41-1.81-5.59-3.29-9.53-4.44c-3.94-1.15-8.3-2.24-13.06-3.29
				c-4.77-1.04-9.53-2.33-14.3-3.86c-4.76-1.53-9.12-3.5-13.06-5.91c-3.94-2.41-7.15-5.59-9.61-9.53c-2.46-3.94-3.7-8.98-3.7-15.12
				c0-6.57,1.78-12.57,5.34-17.99c3.56-5.42,8.93-9.75,16.1-12.98c7.17-3.23,16.18-4.85,27.03-4.85c7.23,0,14.35,0.85,21.36,2.55
				c7.01,1.7,13.2,4.25,18.57,7.64l-8.22,20.21c-5.37-3.07-10.74-5.34-16.1-6.82c-5.37-1.48-10.63-2.22-15.77-2.22
				c-5.15,0-9.37,0.6-12.65,1.81c-3.29,1.21-5.64,2.77-7.07,4.68c-1.42,1.92-2.14,4.14-2.14,6.65c0,2.96,1.2,5.34,3.61,7.15
				c2.41,1.81,5.59,3.26,9.53,4.35c3.94,1.1,8.3,2.19,13.06,3.29c4.76,1.1,9.53,2.36,14.29,3.78c4.76,1.42,9.12,3.34,13.06,5.75
				c3.94,2.41,7.15,5.59,9.61,9.53c2.46,3.94,3.7,8.93,3.7,14.95c0,6.46-1.81,12.38-5.42,17.75c-3.61,5.37-9.01,9.69-16.19,12.98
				C498.08,1209.66,489.02,1211.3,478.07,1211.3z"/>
			<path class="st0" d="M587.99,1187.97h62.6v21.36h-89.06v-115.02h86.92v21.36h-60.47V1187.97z M586.02,1140.64h55.37v20.7h-55.37
				V1140.64z"/>
			<path class="st0" d="M688.22,1209.33v-115.02h22.02l67.86,82.81h-10.68v-82.81h26.29v115.02h-21.85l-68.03-82.81h10.68v82.81
				H688.22z"/>
			<path class="st0" d="M861.24,1209.33V1116h-36.81v-21.69h100.23V1116h-36.81v93.33H861.24z"/>
			<path class="st0" d="M955.39,1209.33v-115.02h26.62v115.02H955.39z"/>
			<path class="st0" d="M1025.71,1209.33v-115.02h22.02l67.86,82.81h-10.68v-82.81h26.29v115.02h-21.85l-68.03-82.81H1052v82.81
				H1025.71z"/>
			<path class="st0" d="M1201.36,1187.97h62.6v21.36h-89.06v-115.02h86.92v21.36h-60.47V1187.97z M1199.39,1140.64h55.37v20.7
				h-55.37V1140.64z"/>
			<path class="st0" d="M1301.59,1209.33v-115.02h26.62v93.33h57.67v21.69H1301.59z"/>
			<path class="st0" d="M1403.96,1209.33l52.58-115.02h11.99l52.58,115.02h-12.82l-48.31-107.95h4.93l-48.31,107.95H1403.96z
				 M1424.66,1178.6l3.62-9.86h66.87l3.62,9.86H1424.66z"/>
			<path class="st0" d="M1556.6,1209.33v-115.02h12.16v115.02H1556.6z"/>
		</g>
		<g>
			<path class="st0" d="M696.44,1260.78v4.27h-8.5v27.67h-5.24v-27.67h-8.55v-4.27H696.44z"/>
			<path class="st0" d="M724.59,1268.23c1.52,0.83,2.71,2.05,3.59,3.68c0.87,1.62,1.31,3.59,1.31,5.88v14.94h-5.19v-14.16
				c0-2.27-0.57-4.01-1.7-5.22c-1.13-1.21-2.68-1.82-4.64-1.82c-1.96,0-3.52,0.61-4.67,1.82c-1.15,1.21-1.72,2.95-1.72,5.22v14.16
				h-5.24v-34.01h5.24v11.63c0.89-1.07,2.01-1.9,3.38-2.48c1.36-0.58,2.86-0.87,4.48-0.87
				C721.35,1266.99,723.07,1267.4,724.59,1268.23z"/>
			<path class="st0" d="M763.77,1282.01h-19.35c0.15,2.02,0.9,3.65,2.25,4.87c1.35,1.23,3,1.84,4.96,1.84
				c2.82,0,4.81-1.18,5.97-3.54h5.65c-0.77,2.33-2.15,4.24-4.16,5.72c-2.01,1.49-4.5,2.23-7.47,2.23c-2.42,0-4.59-0.54-6.5-1.63
				c-1.92-1.09-3.42-2.62-4.5-4.6c-1.09-1.98-1.63-4.27-1.63-6.87c0-2.6,0.53-4.89,1.59-6.87c1.06-1.98,2.54-3.5,4.46-4.57
				c1.91-1.07,4.11-1.61,6.6-1.61c2.39,0,4.52,0.52,6.39,1.56c1.87,1.04,3.32,2.5,4.37,4.39c1.04,1.88,1.56,4.05,1.56,6.5
				C763.95,1280.39,763.89,1281.25,763.77,1282.01z M758.48,1277.79c-0.03-1.93-0.72-3.48-2.07-4.64c-1.35-1.16-3.02-1.75-5.01-1.75
				c-1.81,0-3.36,0.57-4.64,1.72c-1.29,1.15-2.05,2.7-2.3,4.66H758.48z"/>
			<path class="st0" d="M816.48,1292.72h-5.24l-15.76-23.85v23.85h-5.24v-31.99h5.24l15.76,23.81v-23.81h5.24V1292.72z"/>
			<path class="st0" d="M851,1282.01h-19.35c0.15,2.02,0.9,3.65,2.25,4.87c1.35,1.23,3,1.84,4.96,1.84c2.82,0,4.81-1.18,5.97-3.54
				h5.65c-0.77,2.33-2.15,4.24-4.16,5.72c-2.01,1.49-4.5,2.23-7.47,2.23c-2.42,0-4.59-0.54-6.5-1.63c-1.92-1.09-3.42-2.62-4.5-4.6
				c-1.09-1.98-1.63-4.27-1.63-6.87c0-2.6,0.53-4.89,1.59-6.87c1.06-1.98,2.54-3.5,4.46-4.57c1.91-1.07,4.11-1.61,6.6-1.61
				c2.39,0,4.52,0.52,6.39,1.56c1.87,1.04,3.32,2.5,4.37,4.39c1.04,1.88,1.56,4.05,1.56,6.5
				C851.18,1280.39,851.12,1281.25,851,1282.01z M845.71,1277.79c-0.03-1.93-0.72-3.48-2.07-4.64c-1.35-1.16-3.02-1.75-5.01-1.75
				c-1.81,0-3.35,0.57-4.64,1.72c-1.29,1.15-2.05,2.7-2.3,4.66H845.71z"/>
			<path class="st0" d="M894.94,1267.4l-7.86,25.32h-5.52l-5.1-18.71l-5.1,18.71h-5.52l-7.9-25.32h5.33l5.28,20.36l5.38-20.36h5.47
				l5.15,20.27l5.24-20.27H894.94z"/>
			<path class="st0" d="M961.58,1260.78l-9.47,31.94h-5.93l-6.71-24.18l-7.12,24.18l-5.88,0.05l-9.05-31.99h5.56l6.62,26.01
				l7.17-26.01h5.88l6.66,25.88l6.66-25.88H961.58z"/>
			<path class="st0" d="M970.33,1273.19c1.06-1.96,2.5-3.48,4.32-4.57c1.82-1.09,3.84-1.63,6.04-1.63c1.99,0,3.73,0.39,5.22,1.17
				c1.48,0.78,2.67,1.75,3.56,2.92v-3.68h5.29v25.32h-5.29v-3.77c-0.89,1.19-2.1,2.19-3.63,2.99c-1.53,0.8-3.28,1.2-5.24,1.2
				c-2.18,0-4.17-0.56-5.98-1.68c-1.81-1.12-3.24-2.68-4.3-4.69c-1.06-2.01-1.59-4.28-1.59-6.83S969.28,1275.15,970.33,1273.19z
				 M988.4,1275.49c-0.72-1.29-1.66-2.27-2.83-2.94c-1.16-0.67-2.42-1.01-3.77-1.01c-1.35,0-2.61,0.33-3.77,0.99
				c-1.16,0.66-2.11,1.62-2.83,2.9c-0.72,1.27-1.08,2.78-1.08,4.53c0,1.75,0.36,3.28,1.08,4.6s1.67,2.32,2.85,3.01
				s2.43,1.03,3.75,1.03c1.35,0,2.6-0.34,3.77-1.01c1.16-0.67,2.11-1.66,2.83-2.96c0.72-1.3,1.08-2.83,1.08-4.57
				C989.48,1278.29,989.12,1276.78,988.4,1275.49z"/>
			<path class="st0" d="M1029.05,1267.4l-15.53,37.23h-5.42l5.15-12.32l-9.97-24.91h5.84l7.12,19.3l7.4-19.3H1029.05z"/>
			<path class="st0" d="M1060.51,1290.95c-2.5-1.39-4.47-3.34-5.93-5.84c-1.46-2.5-2.18-5.31-2.18-8.43c0-3.13,0.73-5.93,2.18-8.41
				c1.45-2.48,3.43-4.42,5.93-5.81c2.5-1.39,5.23-2.09,8.2-2.09c3,0,5.75,0.7,8.25,2.09c2.5,1.39,4.46,3.33,5.91,5.81
				c1.44,2.48,2.16,5.28,2.16,8.41c0,3.12-0.72,5.94-2.16,8.43c-1.44,2.5-3.41,4.44-5.91,5.84c-2.5,1.39-5.25,2.09-8.25,2.09
				C1065.74,1293.05,1063,1292.35,1060.51,1290.95z M1074.36,1287.05c1.65-0.96,2.95-2.34,3.88-4.14c0.94-1.79,1.4-3.87,1.4-6.23
				c0-2.36-0.47-4.43-1.4-6.2c-0.94-1.78-2.23-3.14-3.88-4.09c-1.65-0.95-3.54-1.42-5.65-1.42c-2.11,0-4,0.47-5.65,1.42
				c-1.65,0.95-2.95,2.31-3.88,4.09c-0.93,1.78-1.4,3.85-1.4,6.2c0,2.36,0.47,4.44,1.4,6.23c0.94,1.79,2.23,3.17,3.88,4.14
				c1.65,0.97,3.54,1.45,5.65,1.45C1070.82,1288.5,1072.71,1288.01,1074.36,1287.05z"/>
			<path class="st0" d="M1105.39,1271.67h-4.69v21.05h-5.29v-21.05h-2.99v-4.27h2.99v-1.79c0-2.91,0.77-5.03,2.32-6.37
				c1.55-1.33,3.97-2,7.28-2v4.37c-1.59,0-2.71,0.3-3.35,0.9c-0.64,0.6-0.97,1.63-0.97,3.1v1.79h4.69V1271.67z"/>
			<path class="st0" d="M1135.9,1291.92c-1.72-0.75-3.07-1.82-4.04-3.19c-0.98-1.38-1.47-2.99-1.47-4.83h5.61
				c0.12,1.38,0.67,2.51,1.63,3.4c0.96,0.89,2.32,1.33,4.07,1.33c1.81,0,3.22-0.44,4.23-1.31c1.01-0.87,1.52-2,1.52-3.38
				c0-1.07-0.31-1.95-0.94-2.62c-0.63-0.67-1.41-1.19-2.34-1.56c-0.94-0.37-2.23-0.77-3.88-1.19c-2.08-0.55-3.78-1.11-5.08-1.68
				c-1.3-0.57-2.41-1.45-3.33-2.64c-0.92-1.19-1.38-2.79-1.38-4.78c0-1.84,0.46-3.45,1.38-4.83c0.92-1.38,2.21-2.44,3.86-3.17
				c1.65-0.74,3.57-1.1,5.74-1.1c3.1,0,5.63,0.77,7.61,2.32c1.98,1.55,3.07,3.67,3.29,6.37h-5.79c-0.09-1.16-0.64-2.16-1.65-2.99
				c-1.01-0.83-2.34-1.24-4-1.24c-1.5,0-2.73,0.38-3.68,1.15c-0.95,0.77-1.42,1.87-1.42,3.31c0,0.98,0.3,1.79,0.9,2.41
				c0.6,0.63,1.36,1.13,2.27,1.49c0.92,0.37,2.17,0.77,3.77,1.19c2.11,0.58,3.84,1.16,5.17,1.75c1.33,0.58,2.47,1.48,3.4,2.69
				c0.93,1.21,1.4,2.83,1.4,4.85c0,1.62-0.44,3.16-1.31,4.6c-0.87,1.44-2.15,2.6-3.81,3.47c-1.67,0.87-3.64,1.31-5.91,1.31
				C1139.55,1293.05,1137.62,1292.67,1135.9,1291.92z"/>
			<path class="st0" d="M1181.66,1268.23c1.58,0.83,2.81,2.05,3.7,3.68c0.89,1.62,1.33,3.59,1.33,5.88v14.94h-5.19v-14.16
				c0-2.27-0.57-4.01-1.7-5.22c-1.14-1.21-2.68-1.82-4.64-1.82c-1.96,0-3.52,0.61-4.66,1.82c-1.15,1.21-1.72,2.95-1.72,5.22v14.16
				h-5.24v-25.32h5.24v2.9c0.86-1.04,1.95-1.85,3.29-2.44c1.33-0.58,2.75-0.87,4.25-0.87
				C1178.29,1266.99,1180.08,1267.4,1181.66,1268.23z"/>
			<path class="st0" d="M1198.22,1263.08c-0.64-0.64-0.96-1.44-0.96-2.39c0-0.95,0.32-1.75,0.96-2.39c0.64-0.64,1.44-0.97,2.39-0.97
				c0.92,0,1.7,0.32,2.34,0.97c0.64,0.64,0.97,1.44,0.97,2.39c0,0.95-0.32,1.75-0.97,2.39c-0.64,0.64-1.42,0.97-2.34,0.97
				C1199.66,1264.04,1198.87,1263.72,1198.22,1263.08z M1203.19,1267.4v25.32h-5.24v-25.32H1203.19z"/>
			<path class="st0" d="M1223.55,1268.18c1.53-0.8,3.26-1.19,5.19-1.19c2.21,0,4.22,0.54,6.04,1.63c1.82,1.09,3.26,2.61,4.3,4.57
				c1.04,1.96,1.56,4.21,1.56,6.76s-0.52,4.82-1.56,6.83c-1.04,2.01-2.47,3.57-4.3,4.69c-1.82,1.12-3.84,1.68-6.04,1.68
				c-1.93,0-3.65-0.39-5.15-1.17c-1.5-0.78-2.73-1.75-3.68-2.92v15.72h-5.24v-37.37h5.24v3.72
				C1220.81,1269.96,1222.02,1268.98,1223.55,1268.18z M1234.23,1275.42c-0.72-1.27-1.67-2.24-2.85-2.9
				c-1.18-0.66-2.44-0.99-3.79-0.99c-1.32,0-2.57,0.34-3.75,1.01c-1.18,0.67-2.13,1.65-2.85,2.94c-0.72,1.29-1.08,2.8-1.08,4.55
				c0,1.75,0.36,3.27,1.08,4.57c0.72,1.3,1.67,2.29,2.85,2.96c1.18,0.67,2.43,1.01,3.75,1.01c1.35,0,2.61-0.34,3.79-1.03
				c1.18-0.69,2.13-1.69,2.85-3.01c0.72-1.32,1.08-2.85,1.08-4.6C1235.31,1278.2,1234.95,1276.69,1234.23,1275.42z"/>
			<path class="st0" d="M1250.71,1263.08c-0.64-0.64-0.96-1.44-0.96-2.39c0-0.95,0.32-1.75,0.96-2.39c0.64-0.64,1.44-0.97,2.39-0.97
				c0.92,0,1.7,0.32,2.34,0.97c0.64,0.64,0.96,1.44,0.96,2.39c0,0.95-0.32,1.75-0.96,2.39c-0.64,0.64-1.42,0.97-2.34,0.97
				C1252.15,1264.04,1251.36,1263.72,1250.71,1263.08z M1255.67,1267.4v25.32h-5.24v-25.32H1255.67z"/>
			<path class="st0" d="M1285.29,1268.23c1.58,0.83,2.81,2.05,3.7,3.68c0.89,1.62,1.33,3.59,1.33,5.88v14.94h-5.19v-14.16
				c0-2.27-0.57-4.01-1.7-5.22c-1.14-1.21-2.68-1.82-4.64-1.82c-1.96,0-3.52,0.61-4.66,1.82c-1.15,1.21-1.72,2.95-1.72,5.22v14.16
				h-5.24v-25.32h5.24v2.9c0.86-1.04,1.95-1.85,3.29-2.44c1.33-0.58,2.75-0.87,4.25-0.87
				C1281.93,1266.99,1283.72,1267.4,1285.29,1268.23z"/>
			<path class="st0" d="M1317.01,1268.16c1.52,0.78,2.7,1.75,3.56,2.92v-3.68h5.29v25.74c0,2.33-0.49,4.4-1.47,6.23
				c-0.98,1.82-2.4,3.26-4.25,4.3c-1.85,1.04-4.07,1.56-6.64,1.56c-3.43,0-6.28-0.8-8.55-2.41c-2.27-1.61-3.55-3.79-3.86-6.55h5.2
				c0.4,1.32,1.25,2.38,2.55,3.19c1.3,0.81,2.86,1.22,4.66,1.22c2.11,0,3.82-0.64,5.12-1.93c1.3-1.29,1.95-3.16,1.95-5.61v-4.23
				c-0.89,1.19-2.09,2.2-3.61,3.01c-1.52,0.81-3.24,1.22-5.17,1.22c-2.21,0-4.22-0.56-6.04-1.68c-1.82-1.12-3.26-2.68-4.32-4.69
				c-1.06-2.01-1.59-4.28-1.59-6.83s0.53-4.8,1.59-6.76c1.06-1.96,2.5-3.48,4.32-4.57c1.82-1.09,3.84-1.63,6.04-1.63
				C1313.75,1266.99,1315.49,1267.38,1317.01,1268.16z M1319.49,1275.49c-0.72-1.29-1.66-2.27-2.83-2.94
				c-1.16-0.67-2.42-1.01-3.77-1.01c-1.35,0-2.61,0.33-3.77,0.99c-1.16,0.66-2.11,1.62-2.83,2.9c-0.72,1.27-1.08,2.78-1.08,4.53
				c0,1.75,0.36,3.28,1.08,4.6c0.72,1.32,1.67,2.32,2.85,3.01c1.18,0.69,2.43,1.03,3.75,1.03c1.35,0,2.6-0.34,3.77-1.01
				c1.16-0.67,2.11-1.66,2.83-2.96c0.72-1.3,1.08-2.83,1.08-4.57C1320.57,1278.29,1320.21,1276.78,1319.49,1275.49z"/>
		</g>
	</g>
</g>
</svg>
