<?xml version="1.0" encoding="utf-8"?>
<!-- Generator: Adobe Illustrator 26.5.0, SVG Export Plug-In . SVG Version: 6.00 Build 0)  -->
<svg version="1.1" id="Layer_1" xmlns="http://www.w3.org/2000/svg" xmlns:xlink="http://www.w3.org/1999/xlink" x="0px" y="0px"
	 viewBox="0 0 2000 2000" style="enable-background:new 0 0 2000 2000;" xml:space="preserve">
<style type="text/css">
	.st0{fill:#212323;}
	.st1{fill:#FFFFFF;}
	.st2{fill:#BE1B2A;}
	.st3{fill:#BC1B2A;}
</style>
<g>
	<g>
		<polygon class="st2" points="1151.32,741.74 1151.32,1010.27 1017.65,1080.06 1017.65,1040.32 1116.07,988.9 1116.07,776.98 
			1052.89,810.13 1052.89,741.74 		"/>
		<g>
			<polygon class="st0" points="1092.04,826.53 1017.62,865.39 1017.62,905.15 1092.04,866.29 			"/>
			<polyline class="st0" points="1017.62,896.7 1017.62,1014.12 1061.01,857.39 			"/>
		</g>
		<polygon class="st2" points="982.4,1040.32 982.4,1080.06 848.68,1010.27 848.68,741.74 947.15,741.74 947.15,810.13 
			883.93,776.98 883.93,988.9 		"/>
		<g>
			<polygon class="st0" points="907.96,826.53 982.38,865.39 982.38,905.15 907.96,866.29 			"/>
			<polyline class="st0" points="982.38,896.7 982.38,1014.12 938.99,857.39 			"/>
		</g>
	</g>
	<g>
		<g>
			<path class="st0" d="M478.07,1258.26c-9.2,0-18.02-1.23-26.45-3.7c-8.44-2.46-15.23-5.67-20.37-9.61l9.04-20.05
				c4.93,3.51,10.76,6.38,17.5,8.63c6.74,2.25,13.56,3.37,20.46,3.37c5.26,0,9.5-0.52,12.73-1.56c3.23-1.04,5.61-2.49,7.15-4.35
				c1.53-1.86,2.3-4,2.3-6.41c0-3.07-1.21-5.5-3.61-7.31c-2.41-1.81-5.59-3.29-9.53-4.44c-3.94-1.15-8.3-2.24-13.06-3.29
				c-4.77-1.04-9.53-2.33-14.3-3.86c-4.76-1.53-9.12-3.5-13.06-5.91c-3.94-2.41-7.15-5.59-9.61-9.53c-2.46-3.94-3.7-8.98-3.7-15.12
				c0-6.57,1.78-12.57,5.34-17.99c3.56-5.42,8.93-9.75,16.1-12.98c7.17-3.23,16.18-4.85,27.03-4.85c7.23,0,14.35,0.85,21.36,2.55
				c7.01,1.7,13.2,4.25,18.57,7.64l-8.22,20.21c-5.37-3.07-10.74-5.34-16.1-6.82c-5.37-1.48-10.63-2.22-15.77-2.22
				c-5.15,0-9.37,0.6-12.65,1.81c-3.29,1.21-5.64,2.77-7.07,4.68c-1.42,1.92-2.14,4.14-2.14,6.65c0,2.96,1.2,5.34,3.61,7.15
				c2.41,1.81,5.59,3.26,9.53,4.35c3.94,1.1,8.3,2.19,13.06,3.29c4.76,1.1,9.53,2.36,14.29,3.78c4.76,1.42,9.12,3.34,13.06,5.75
				c3.94,2.41,7.15,5.59,9.61,9.53c2.46,3.94,3.7,8.93,3.7,14.95c0,6.46-1.81,12.38-5.42,17.75c-3.61,5.37-9.01,9.69-16.19,12.98
				C498.08,1256.62,489.02,1258.26,478.07,1258.26z"/>
			<path class="st0" d="M587.99,1234.93h62.6v21.36h-89.06v-115.02h86.92v21.36h-60.47V1234.93z M586.02,1187.61h55.37v20.7h-55.37
				V1187.61z"/>
			<path class="st0" d="M688.22,1256.29v-115.02h22.02l67.86,82.81h-10.68v-82.81h26.29v115.02h-21.85l-68.03-82.81h10.68v82.81
				H688.22z"/>
			<path class="st0" d="M861.24,1256.29v-93.33h-36.81v-21.69h100.23v21.69h-36.81v93.33H861.24z"/>
			<path class="st0" d="M955.39,1256.29v-115.02h26.62v115.02H955.39z"/>
			<path class="st0" d="M1025.71,1256.29v-115.02h22.02l67.86,82.81h-10.68v-82.81h26.29v115.02h-21.85l-68.03-82.81H1052v82.81
				H1025.71z"/>
			<path class="st0" d="M1201.36,1234.93h62.6v21.36h-89.06v-115.02h86.92v21.36h-60.47V1234.93z M1199.39,1187.61h55.37v20.7
				h-55.37V1187.61z"/>
			<path class="st0" d="M1301.59,1256.29v-115.02h26.62v93.33h57.67v21.69H1301.59z"/>
			<path class="st2" d="M1403.96,1256.29l52.58-115.02h11.99l52.58,115.02h-12.82l-48.31-107.95h4.93l-48.31,107.95H1403.96z
				 M1424.66,1225.56l3.62-9.86h66.87l3.62,9.86H1424.66z"/>
			<path class="st2" d="M1556.6,1256.29v-115.02h12.16v115.02H1556.6z"/>
		</g>
	</g>
</g>
</svg>
